<svg width="894" height="186" viewBox="0 0 894 186" fill="none" xmlns="http://www.w3.org/2000/svg">
<path d="M0 79C0 35.3695 35.3695 0 79 0H815C858.63 0 894 35.3695 894 79C894 122.63 858.63 158 815 158H79C35.3695 158 0 122.63 0 79Z" fill="#D9D9D9"/>
<path d="M129.195 70.202V44.0202H144.996V46.8327H132.366V55.6793H144.178V58.4918H132.366V67.3895H145.201V70.202H129.195ZM162.677 62.1736V50.5657H165.694V70.202H162.677V66.8782H162.472C162.012 67.8753 161.296 68.7233 160.324 69.4222C159.353 70.1125 158.126 70.4577 156.643 70.4577C155.415 70.4577 154.324 70.1892 153.37 69.6523C152.415 69.1069 151.665 68.2887 151.12 67.1978C150.574 66.0983 150.302 64.7134 150.302 63.0429V50.5657H153.319V62.8384C153.319 64.2702 153.719 65.4123 154.52 66.2645C155.33 67.1168 156.361 67.5429 157.614 67.5429C158.364 67.5429 159.127 67.3512 159.902 66.9677C160.687 66.5841 161.343 65.9961 161.871 65.2034C162.408 64.4108 162.677 63.4009 162.677 62.1736ZM189.884 50.5657V53.1225H179.708V50.5657H189.884ZM182.674 45.8611H185.691V64.577C185.691 65.4293 185.815 66.0685 186.062 66.4946C186.318 66.9123 186.641 67.1935 187.034 67.3384C187.434 67.4748 187.856 67.5429 188.299 67.5429C188.632 67.5429 188.904 67.5259 189.117 67.4918C189.33 67.4492 189.501 67.4151 189.629 67.3895L190.242 70.0998C190.038 70.1765 189.752 70.2532 189.386 70.3299C189.019 70.4151 188.555 70.4577 187.992 70.4577C187.14 70.4577 186.305 70.2745 185.487 69.908C184.677 69.5415 184.004 68.9833 183.467 68.2333C182.938 67.4833 182.674 66.5373 182.674 65.3952V45.8611ZM202.445 70.6111C200.553 70.6111 198.921 70.1935 197.548 69.3583C196.185 68.5145 195.132 67.3384 194.391 65.8299C193.658 64.3128 193.291 62.5486 193.291 60.5373C193.291 58.5259 193.658 56.7532 194.391 55.2191C195.132 53.6765 196.164 52.4748 197.485 51.614C198.814 50.7446 200.365 50.31 202.138 50.31C203.161 50.31 204.171 50.4804 205.168 50.8213C206.165 51.1623 207.073 51.7162 207.891 52.4833C208.709 53.2418 209.361 54.2475 209.847 55.5003C210.333 56.7532 210.575 58.2958 210.575 60.1282V61.4066H195.439V58.7986H207.507C207.507 57.6907 207.286 56.702 206.842 55.8327C206.408 54.9634 205.786 54.2773 204.976 53.7745C204.175 53.2716 203.229 53.0202 202.138 53.0202C200.936 53.0202 199.896 53.3185 199.019 53.9151C198.149 54.5032 197.48 55.2702 197.012 56.2162C196.543 57.1623 196.308 58.1765 196.308 59.2588V60.9975C196.308 62.4804 196.564 63.7375 197.075 64.7688C197.595 65.7915 198.315 66.5713 199.236 67.1083C200.156 67.6367 201.226 67.9009 202.445 67.9009C203.237 67.9009 203.953 67.7901 204.592 67.5685C205.24 67.3384 205.798 66.9975 206.267 66.5458C206.736 66.0855 207.098 65.5145 207.354 64.8327L210.269 65.6509C209.962 66.6395 209.446 67.5088 208.722 68.2588C207.997 69.0003 207.102 69.5799 206.037 69.9975C204.972 70.4066 203.774 70.6111 202.445 70.6111ZM218.182 58.3895V70.202H215.165V50.5657H218.08V53.6338H218.335C218.796 52.6367 219.494 51.8355 220.432 51.2304C221.369 50.6168 222.58 50.31 224.063 50.31C225.392 50.31 226.556 50.5827 227.553 51.1282C228.55 51.6651 229.325 52.4833 229.879 53.5827C230.433 54.6736 230.71 56.0543 230.71 57.7248V70.202H227.693V57.9293C227.693 56.3867 227.293 55.185 226.492 54.3242C225.69 53.4549 224.591 53.0202 223.193 53.0202C222.23 53.0202 221.369 53.229 220.611 53.6466C219.861 54.0642 219.269 54.6736 218.834 55.4748C218.399 56.2759 218.182 57.2475 218.182 58.3895ZM239.241 58.3895V70.202H236.224V44.0202H239.241V53.6338H239.496C239.956 52.6196 240.647 51.8142 241.567 51.2177C242.496 50.6125 243.732 50.31 245.275 50.31C246.613 50.31 247.785 50.5784 248.79 51.1154C249.796 51.6438 250.576 52.4577 251.13 53.5571C251.692 54.648 251.974 56.0373 251.974 57.7248V70.202H248.956V57.9293C248.956 56.3696 248.552 55.1637 247.742 54.3114C246.941 53.4506 245.829 53.0202 244.405 53.0202C243.417 53.0202 242.53 53.229 241.746 53.6466C240.971 54.0642 240.357 54.6736 239.905 55.4748C239.462 56.2759 239.241 57.2475 239.241 58.3895ZM265.47 70.6111C263.698 70.6111 262.142 70.1892 260.804 69.3455C259.475 68.5017 258.435 67.3213 257.685 65.8043C256.943 64.2873 256.573 62.5145 256.573 60.4861C256.573 58.4407 256.943 56.6552 257.685 55.1296C258.435 53.604 259.475 52.4194 260.804 51.5756C262.142 50.7319 263.698 50.31 265.47 50.31C267.243 50.31 268.794 50.7319 270.124 51.5756C271.462 52.4194 272.502 53.604 273.243 55.1296C273.993 56.6552 274.368 58.4407 274.368 60.4861C274.368 62.5145 273.993 64.2873 273.243 65.8043C272.502 67.3213 271.462 68.5017 270.124 69.3455C268.794 70.1892 267.243 70.6111 265.47 70.6111ZM265.47 67.9009C266.817 67.9009 267.925 67.5557 268.794 66.8654C269.664 66.175 270.307 65.2674 270.725 64.1424C271.142 63.0174 271.351 61.7986 271.351 60.4861C271.351 59.1736 271.142 57.9506 270.725 56.8171C270.307 55.6836 269.664 54.7674 268.794 54.0685C267.925 53.3696 266.817 53.0202 265.47 53.0202C264.124 53.0202 263.016 53.3696 262.146 54.0685C261.277 54.7674 260.634 55.6836 260.216 56.8171C259.798 57.9506 259.59 59.1736 259.59 60.4861C259.59 61.7986 259.798 63.0174 260.216 64.1424C260.634 65.2674 261.277 66.175 262.146 66.8654C263.016 67.5557 264.124 67.9009 265.47 67.9009ZM289.099 70.202V50.5657H292.013V53.6338H292.269C292.678 52.5855 293.339 51.7716 294.251 51.1921C295.162 50.604 296.258 50.31 297.536 50.31C298.831 50.31 299.91 50.604 300.77 51.1921C301.64 51.7716 302.317 52.5855 302.803 53.6338H303.008C303.51 52.6196 304.265 51.8142 305.27 51.2177C306.276 50.6125 307.482 50.31 308.888 50.31C310.644 50.31 312.08 50.8597 313.197 51.9591C314.313 53.05 314.871 54.7503 314.871 57.06V70.202H311.854V57.06C311.854 55.6111 311.458 54.5756 310.665 53.9534C309.873 53.3313 308.939 53.0202 307.866 53.0202C306.485 53.0202 305.415 53.4378 304.657 54.273C303.898 55.0998 303.519 56.148 303.519 57.4179V70.202H300.451V56.7532C300.451 55.6367 300.089 54.7375 299.364 54.0557C298.64 53.3654 297.706 53.0202 296.564 53.0202C295.78 53.0202 295.047 53.229 294.366 53.6466C293.692 54.0642 293.147 54.6438 292.729 55.3853C292.32 56.1182 292.116 56.9662 292.116 57.9293V70.202H289.099ZM332.763 62.1736V50.5657H335.78V70.202H332.763V66.8782H332.558C332.098 67.8753 331.382 68.7233 330.41 69.4222C329.439 70.1125 328.211 70.4577 326.728 70.4577C325.501 70.4577 324.41 70.1892 323.456 69.6523C322.501 69.1069 321.751 68.2887 321.206 67.1978C320.66 66.0983 320.388 64.7134 320.388 63.0429V50.5657H323.405V62.8384C323.405 64.2702 323.805 65.4123 324.606 66.2645C325.416 67.1168 326.447 67.5429 327.7 67.5429C328.45 67.5429 329.213 67.3512 329.988 66.9677C330.773 66.5841 331.429 65.9961 331.957 65.2034C332.494 64.4108 332.763 63.4009 332.763 62.1736ZM341.306 70.202V50.5657H344.323V70.202H341.306ZM342.84 47.2929C342.252 47.2929 341.744 47.0927 341.318 46.6921C340.901 46.2915 340.692 45.81 340.692 45.2475C340.692 44.685 340.901 44.2034 341.318 43.8029C341.744 43.4023 342.252 43.202 342.84 43.202C343.428 43.202 343.931 43.4023 344.348 43.8029C344.774 44.2034 344.987 44.685 344.987 45.2475C344.987 45.81 344.774 46.2915 344.348 46.6921C343.931 47.0927 343.428 47.2929 342.84 47.2929ZM358.388 50.5657V53.1225H348.212V50.5657H358.388ZM351.178 45.8611H354.195V64.577C354.195 65.4293 354.319 66.0685 354.566 66.4946C354.822 66.9123 355.145 67.1935 355.537 67.3384C355.938 67.4748 356.36 67.5429 356.803 67.5429C357.135 67.5429 357.408 67.5259 357.621 67.4918C357.834 67.4492 358.005 67.4151 358.133 67.3895L358.746 70.0998C358.542 70.1765 358.256 70.2532 357.89 70.3299C357.523 70.4151 357.059 70.4577 356.496 70.4577C355.644 70.4577 354.809 70.2745 353.991 69.908C353.181 69.5415 352.508 68.9833 351.971 68.2333C351.442 67.4833 351.178 66.5373 351.178 65.3952V45.8611ZM370.693 70.6111C368.92 70.6111 367.365 70.1892 366.027 69.3455C364.697 68.5017 363.657 67.3213 362.907 65.8043C362.166 64.2873 361.795 62.5145 361.795 60.4861C361.795 58.4407 362.166 56.6552 362.907 55.1296C363.657 53.604 364.697 52.4194 366.027 51.5756C367.365 50.7319 368.92 50.31 370.693 50.31C372.466 50.31 374.017 50.7319 375.346 51.5756C376.684 52.4194 377.724 53.604 378.466 55.1296C379.216 56.6552 379.591 58.4407 379.591 60.4861C379.591 62.5145 379.216 64.2873 378.466 65.8043C377.724 67.3213 376.684 68.5017 375.346 69.3455C374.017 70.1892 372.466 70.6111 370.693 70.6111ZM370.693 67.9009C372.04 67.9009 373.148 67.5557 374.017 66.8654C374.886 66.175 375.53 65.2674 375.947 64.1424C376.365 63.0174 376.574 61.7986 376.574 60.4861C376.574 59.1736 376.365 57.9506 375.947 56.8171C375.53 55.6836 374.886 54.7674 374.017 54.0685C373.148 53.3696 372.04 53.0202 370.693 53.0202C369.346 53.0202 368.238 53.3696 367.369 54.0685C366.5 54.7674 365.856 55.6836 365.439 56.8171C365.021 57.9506 364.812 59.1736 364.812 60.4861C364.812 61.7986 365.021 63.0174 365.439 64.1424C365.856 65.2674 366.5 66.175 367.369 66.8654C368.238 67.5557 369.346 67.9009 370.693 67.9009ZM394.321 70.202V50.5657H397.236V53.6338H397.492C397.901 52.5855 398.561 51.7716 399.473 51.1921C400.385 50.604 401.48 50.31 402.759 50.31C404.054 50.31 405.132 50.604 405.993 51.1921C406.862 51.7716 407.54 52.5855 408.026 53.6338H408.23C408.733 52.6196 409.487 51.8142 410.493 51.2177C411.499 50.6125 412.705 50.31 414.111 50.31C415.867 50.31 417.303 50.8597 418.419 51.9591C419.536 53.05 420.094 54.7503 420.094 57.06V70.202H417.077V57.06C417.077 55.6111 416.681 54.5756 415.888 53.9534C415.095 53.3313 414.162 53.0202 413.088 53.0202C411.708 53.0202 410.638 53.4378 409.879 54.273C409.121 55.0998 408.742 56.148 408.742 57.4179V70.202H405.673V56.7532C405.673 55.6367 405.311 54.7375 404.587 54.0557C403.862 53.3654 402.929 53.0202 401.787 53.0202C401.003 53.0202 400.27 53.229 399.588 53.6466C398.915 54.0642 398.369 54.6438 397.952 55.3853C397.543 56.1182 397.338 56.9662 397.338 57.9293V70.202H394.321ZM433.843 70.6111C431.951 70.6111 430.319 70.1935 428.947 69.3583C427.583 68.5145 426.531 67.3384 425.789 65.8299C425.056 64.3128 424.69 62.5486 424.69 60.5373C424.69 58.5259 425.056 56.7532 425.789 55.2191C426.531 53.6765 427.562 52.4748 428.883 51.614C430.213 50.7446 431.764 50.31 433.536 50.31C434.559 50.31 435.569 50.4804 436.566 50.8213C437.563 51.1623 438.471 51.7162 439.289 52.4833C440.107 53.2418 440.759 54.2475 441.245 55.5003C441.731 56.7532 441.974 58.2958 441.974 60.1282V61.4066H426.838V58.7986H438.906C438.906 57.6907 438.684 56.702 438.241 55.8327C437.806 54.9634 437.184 54.2773 436.374 53.7745C435.573 53.2716 434.627 53.0202 433.536 53.0202C432.335 53.0202 431.295 53.3185 430.417 53.9151C429.548 54.5032 428.879 55.2702 428.41 56.2162C427.941 57.1623 427.707 58.1765 427.707 59.2588V60.9975C427.707 62.4804 427.963 63.7375 428.474 64.7688C428.994 65.7915 429.714 66.5713 430.634 67.1083C431.555 67.6367 432.624 67.9009 433.843 67.9009C434.636 67.9009 435.352 67.7901 435.991 67.5685C436.639 67.3384 437.197 66.9975 437.666 66.5458C438.134 66.0855 438.497 65.5145 438.752 64.8327L441.667 65.6509C441.36 66.6395 440.845 67.5088 440.12 68.2588C439.396 69.0003 438.501 69.5799 437.436 69.9975C436.37 70.4066 435.173 70.6111 433.843 70.6111ZM453.978 70.6111C452.342 70.6111 450.897 70.1978 449.644 69.3711C448.391 68.5358 447.411 67.3597 446.704 65.8427C445.997 64.3171 445.643 62.5145 445.643 60.435C445.643 58.3725 445.997 56.5827 446.704 55.0657C447.411 53.5486 448.396 52.3767 449.657 51.55C450.918 50.7233 452.376 50.31 454.029 50.31C455.308 50.31 456.318 50.523 457.059 50.9492C457.809 51.3668 458.38 51.8441 458.772 52.381C459.173 52.9094 459.484 53.3441 459.705 53.685H459.961V44.0202H462.978V70.202H460.063V67.185H459.705C459.484 67.5429 459.168 67.9946 458.759 68.5401C458.35 69.077 457.766 69.5586 457.008 69.9847C456.249 70.4023 455.24 70.6111 453.978 70.6111ZM454.387 67.9009C455.597 67.9009 456.62 67.5855 457.455 66.9549C458.291 66.3157 458.926 65.4336 459.36 64.3086C459.795 63.175 460.012 61.8668 460.012 60.3838C460.012 58.9179 459.799 57.6353 459.373 56.5358C458.947 55.4279 458.316 54.5671 457.481 53.9534C456.646 53.3313 455.615 53.0202 454.387 53.0202C453.109 53.0202 452.043 53.3483 451.191 54.0046C450.347 54.6523 449.713 55.5344 449.286 56.6509C448.869 57.7588 448.66 59.0032 448.66 60.3838C448.66 61.7816 448.873 63.0515 449.299 64.1935C449.734 65.327 450.373 66.2304 451.217 66.9037C452.069 67.5685 453.126 67.9009 454.387 67.9009ZM476.9 70.6111C475.127 70.6111 473.572 70.1892 472.234 69.3455C470.904 68.5017 469.865 67.3213 469.115 65.8043C468.373 64.2873 468.002 62.5145 468.002 60.4861C468.002 58.4407 468.373 56.6552 469.115 55.1296C469.865 53.604 470.904 52.4194 472.234 51.5756C473.572 50.7319 475.127 50.31 476.9 50.31C478.673 50.31 480.224 50.7319 481.553 51.5756C482.891 52.4194 483.931 53.604 484.673 55.1296C485.423 56.6552 485.798 58.4407 485.798 60.4861C485.798 62.5145 485.423 64.2873 484.673 65.8043C483.931 67.3213 482.891 68.5017 481.553 69.3455C480.224 70.1892 478.673 70.6111 476.9 70.6111ZM476.9 67.9009C478.247 67.9009 479.355 67.5557 480.224 66.8654C481.093 66.175 481.737 65.2674 482.154 64.1424C482.572 63.0174 482.781 61.7986 482.781 60.4861C482.781 59.1736 482.572 57.9506 482.154 56.8171C481.737 55.6836 481.093 54.7674 480.224 54.0685C479.355 53.3696 478.247 53.0202 476.9 53.0202C475.553 53.0202 474.445 53.3696 473.576 54.0685C472.707 54.7674 472.063 55.6836 471.646 56.8171C471.228 57.9506 471.019 59.1736 471.019 60.4861C471.019 61.7986 471.228 63.0174 471.646 64.1424C472.063 65.2674 472.707 66.175 473.576 66.8654C474.445 67.5557 475.553 67.9009 476.9 67.9009ZM507.943 70.6111C506.307 70.6111 504.862 70.1978 503.609 69.3711C502.356 68.5358 501.376 67.3597 500.669 65.8427C499.961 64.3171 499.608 62.5145 499.608 60.435C499.608 58.3725 499.961 56.5827 500.669 55.0657C501.376 53.5486 502.361 52.3767 503.622 51.55C504.883 50.7233 506.341 50.31 507.994 50.31C509.273 50.31 510.282 50.523 511.024 50.9492C511.774 51.3668 512.345 51.8441 512.737 52.381C513.138 52.9094 513.449 53.3441 513.67 53.685H513.926V44.0202H516.943V70.202H514.028V67.185H513.67C513.449 67.5429 513.133 67.9946 512.724 68.5401C512.315 69.077 511.731 69.5586 510.973 69.9847C510.214 70.4023 509.204 70.6111 507.943 70.6111ZM508.352 67.9009C509.562 67.9009 510.585 67.5855 511.42 66.9549C512.255 66.3157 512.89 65.4336 513.325 64.3086C513.76 63.175 513.977 61.8668 513.977 60.3838C513.977 58.9179 513.764 57.6353 513.338 56.5358C512.912 55.4279 512.281 54.5671 511.446 53.9534C510.611 53.3313 509.579 53.0202 508.352 53.0202C507.074 53.0202 506.008 53.3483 505.156 54.0046C504.312 54.6523 503.677 55.5344 503.251 56.6509C502.834 57.7588 502.625 59.0032 502.625 60.3838C502.625 61.7816 502.838 63.0515 503.264 64.1935C503.699 65.327 504.338 66.2304 505.182 66.9037C506.034 67.5685 507.091 67.9009 508.352 67.9009ZM530.865 70.6111C529.092 70.6111 527.537 70.1892 526.199 69.3455C524.869 68.5017 523.829 67.3213 523.079 65.8043C522.338 64.2873 521.967 62.5145 521.967 60.4861C521.967 58.4407 522.338 56.6552 523.079 55.1296C523.829 53.604 524.869 52.4194 526.199 51.5756C527.537 50.7319 529.092 50.31 530.865 50.31C532.638 50.31 534.189 50.7319 535.518 51.5756C536.856 52.4194 537.896 53.604 538.638 55.1296C539.388 56.6552 539.763 58.4407 539.763 60.4861C539.763 62.5145 539.388 64.2873 538.638 65.8043C537.896 67.3213 536.856 68.5017 535.518 69.3455C534.189 70.1892 532.638 70.6111 530.865 70.6111ZM530.865 67.9009C532.211 67.9009 533.319 67.5557 534.189 66.8654C535.058 66.175 535.702 65.2674 536.119 64.1424C536.537 63.0174 536.746 61.7986 536.746 60.4861C536.746 59.1736 536.537 57.9506 536.119 56.8171C535.702 55.6836 535.058 54.7674 534.189 54.0685C533.319 53.3696 532.211 53.0202 530.865 53.0202C529.518 53.0202 528.41 53.3696 527.541 54.0685C526.672 54.7674 526.028 55.6836 525.611 56.8171C525.193 57.9506 524.984 59.1736 524.984 60.4861C524.984 61.7986 525.193 63.0174 525.611 64.1424C526.028 65.2674 526.672 66.175 527.541 66.8654C528.41 67.5557 529.518 67.9009 530.865 67.9009ZM562.726 70.6111C560.834 70.6111 559.202 70.1935 557.83 69.3583C556.466 68.5145 555.414 67.3384 554.672 65.8299C553.939 64.3128 553.573 62.5486 553.573 60.5373C553.573 58.5259 553.939 56.7532 554.672 55.2191C555.414 53.6765 556.445 52.4748 557.766 51.614C559.095 50.7446 560.646 50.31 562.419 50.31C563.442 50.31 564.452 50.4804 565.449 50.8213C566.446 51.1623 567.354 51.7162 568.172 52.4833C568.99 53.2418 569.642 54.2475 570.128 55.5003C570.614 56.7532 570.857 58.2958 570.857 60.1282V61.4066H555.72V58.7986H567.789C567.789 57.6907 567.567 56.702 567.124 55.8327C566.689 54.9634 566.067 54.2773 565.257 53.7745C564.456 53.2716 563.51 53.0202 562.419 53.0202C561.217 53.0202 560.178 53.3185 559.3 53.9151C558.431 54.5032 557.762 55.2702 557.293 56.2162C556.824 57.1623 556.59 58.1765 556.59 59.2588V60.9975C556.59 62.4804 556.845 63.7375 557.357 64.7688C557.877 65.7915 558.597 66.5713 559.517 67.1083C560.438 67.6367 561.507 67.9009 562.726 67.9009C563.519 67.9009 564.235 67.7901 564.874 67.5685C565.521 67.3384 566.08 66.9975 566.548 66.5458C567.017 66.0855 567.379 65.5145 567.635 64.8327L570.55 65.6509C570.243 66.6395 569.727 67.5088 569.003 68.2588C568.279 69.0003 567.384 69.5799 566.318 69.9975C565.253 70.4066 564.056 70.6111 562.726 70.6111ZM589.355 54.9634L586.645 55.7304C586.475 55.2787 586.223 54.8398 585.891 54.4137C585.567 53.979 585.124 53.6211 584.561 53.3398C583.999 53.0586 583.279 52.9179 582.401 52.9179C581.199 52.9179 580.198 53.1949 579.396 53.7489C578.604 54.2944 578.208 54.989 578.208 55.8327C578.208 56.5827 578.48 57.175 579.026 57.6097C579.571 58.0444 580.423 58.4066 581.583 58.6963L584.497 59.4123C586.253 59.8384 587.561 60.4904 588.422 61.3682C589.283 62.2375 589.713 63.3583 589.713 64.7304C589.713 65.8554 589.389 66.8611 588.742 67.7475C588.102 68.6338 587.208 69.3327 586.057 69.8441C584.906 70.3554 583.568 70.6111 582.043 70.6111C580.04 70.6111 578.382 70.1765 577.07 69.3071C575.757 68.4378 574.926 67.1679 574.577 65.4975L577.44 64.7816C577.713 65.8384 578.229 66.631 578.987 67.1594C579.754 67.6878 580.756 67.952 581.992 67.952C583.398 67.952 584.514 67.6537 585.341 67.0571C586.176 66.452 586.594 65.7276 586.594 64.8838C586.594 64.202 586.355 63.631 585.878 63.1708C585.401 62.702 584.668 62.3526 583.679 62.1225L580.406 61.3554C578.608 60.9293 577.287 60.2688 576.443 59.3739C575.608 58.4705 575.19 57.3412 575.19 55.9861C575.19 54.8782 575.502 53.898 576.124 53.0458C576.754 52.1935 577.611 51.5245 578.693 51.0387C579.784 50.5529 581.02 50.31 582.401 50.31C584.344 50.31 585.869 50.7361 586.977 51.5884C588.094 52.4407 588.887 53.5657 589.355 54.9634ZM602.232 70.6111C600.391 70.6111 598.806 70.1765 597.476 69.3071C596.147 68.4378 595.124 67.2404 594.408 65.7148C593.692 64.1892 593.334 62.4463 593.334 60.4861C593.334 58.4918 593.701 56.7319 594.434 55.2063C595.175 53.6722 596.206 52.4748 597.527 51.614C598.857 50.7446 600.408 50.31 602.181 50.31C603.562 50.31 604.806 50.5657 605.914 51.077C607.022 51.5884 607.929 52.3043 608.637 53.2248C609.344 54.1452 609.783 55.2191 609.954 56.4463H606.937C606.706 55.5515 606.195 54.7588 605.402 54.0685C604.618 53.3696 603.562 53.0202 602.232 53.0202C601.056 53.0202 600.025 53.327 599.138 53.9407C598.26 54.5458 597.574 55.4023 597.08 56.5103C596.594 57.6097 596.351 58.9009 596.351 60.3838C596.351 61.9009 596.59 63.2219 597.067 64.3469C597.553 65.4719 598.235 66.3455 599.113 66.9677C599.999 67.5898 601.039 67.9009 602.232 67.9009C603.016 67.9009 603.728 67.7645 604.367 67.4918C605.006 67.2191 605.547 66.827 605.991 66.3157C606.434 65.8043 606.749 65.1907 606.937 64.4748H609.954C609.783 65.6338 609.361 66.6779 608.688 67.6069C608.023 68.5273 607.141 69.2603 606.042 69.8057C604.951 70.3427 603.681 70.6111 602.232 70.6111ZM626.739 62.1736V50.5657H629.756V70.202H626.739V66.8782H626.535C626.074 67.8753 625.358 68.7233 624.387 69.4222C623.415 70.1125 622.188 70.4577 620.705 70.4577C619.478 70.4577 618.387 70.1892 617.432 69.6523C616.478 69.1069 615.728 68.2887 615.182 67.1978C614.637 66.0983 614.364 64.7134 614.364 63.0429V50.5657H617.381V62.8384C617.381 64.2702 617.782 65.4123 618.583 66.2645C619.393 67.1168 620.424 67.5429 621.677 67.5429C622.427 67.5429 623.189 67.3512 623.965 66.9677C624.749 66.5841 625.405 65.9961 625.934 65.2034C626.471 64.4108 626.739 63.4009 626.739 62.1736ZM635.282 70.202V50.5657H638.197V53.5316H638.401C638.759 52.56 639.407 51.7716 640.345 51.1665C641.282 50.5614 642.339 50.2588 643.515 50.2588C643.737 50.2588 644.014 50.2631 644.346 50.2716C644.678 50.2802 644.93 50.2929 645.1 50.31V53.3782C644.998 53.3526 644.764 53.3142 644.397 53.2631C644.039 53.2034 643.66 53.1736 643.259 53.1736C642.305 53.1736 641.453 53.3739 640.703 53.7745C639.961 54.1665 639.373 54.712 638.938 55.4108C638.512 56.1012 638.299 56.8895 638.299 57.7759V70.202H635.282ZM656.056 70.6111C654.284 70.6111 652.728 70.1892 651.39 69.3455C650.061 68.5017 649.021 67.3213 648.271 65.8043C647.529 64.2873 647.159 62.5145 647.159 60.4861C647.159 58.4407 647.529 56.6552 648.271 55.1296C649.021 53.604 650.061 52.4194 651.39 51.5756C652.728 50.7319 654.284 50.31 656.056 50.31C657.829 50.31 659.38 50.7319 660.71 51.5756C662.048 52.4194 663.088 53.604 663.829 55.1296C664.579 56.6552 664.954 58.4407 664.954 60.4861C664.954 62.5145 664.579 64.2873 663.829 65.8043C663.088 67.3213 662.048 68.5017 660.71 69.3455C659.38 70.1892 657.829 70.6111 656.056 70.6111ZM656.056 67.9009C657.403 67.9009 658.511 67.5557 659.38 66.8654C660.249 66.175 660.893 65.2674 661.311 64.1424C661.728 63.0174 661.937 61.7986 661.937 60.4861C661.937 59.1736 661.728 57.9506 661.311 56.8171C660.893 55.6836 660.249 54.7674 659.38 54.0685C658.511 53.3696 657.403 53.0202 656.056 53.0202C654.71 53.0202 653.602 53.3696 652.732 54.0685C651.863 54.7674 651.22 55.6836 650.802 56.8171C650.384 57.9506 650.176 59.1736 650.176 60.4861C650.176 61.7986 650.384 63.0174 650.802 64.1424C651.22 65.2674 651.863 66.175 652.732 66.8654C653.602 67.5557 654.71 67.9009 656.056 67.9009ZM674.059 66.6225L673.855 68.0032C673.71 68.9748 673.488 70.0145 673.19 71.1225C672.9 72.2304 672.598 73.2745 672.282 74.2546C671.967 75.2347 671.707 76.0145 671.503 76.5941H669.202C669.312 76.0486 669.457 75.3284 669.636 74.4336C669.815 73.5387 669.994 72.5373 670.173 71.4293C670.361 70.3299 670.514 69.2049 670.633 68.0543L670.787 66.6225H674.059ZM705.831 50.5657L698.57 70.202H695.502L688.24 50.5657H691.513L696.933 66.2134H697.138L702.558 50.5657H705.831ZM717.088 70.6111C715.315 70.6111 713.759 70.1892 712.421 69.3455C711.092 68.5017 710.052 67.3213 709.302 65.8043C708.561 64.2873 708.19 62.5145 708.19 60.4861C708.19 58.4407 708.561 56.6552 709.302 55.1296C710.052 53.604 711.092 52.4194 712.421 51.5756C713.759 50.7319 715.315 50.31 717.088 50.31C718.86 50.31 720.411 50.7319 721.741 51.5756C723.079 52.4194 724.119 53.604 724.86 55.1296C725.61 56.6552 725.985 58.4407 725.985 60.4861C725.985 62.5145 725.61 64.2873 724.86 65.8043C724.119 67.3213 723.079 68.5017 721.741 69.3455C720.411 70.1892 718.86 70.6111 717.088 70.6111ZM717.088 67.9009C718.434 67.9009 719.542 67.5557 720.411 66.8654C721.281 66.175 721.924 65.2674 722.342 64.1424C722.759 63.0174 722.968 61.7986 722.968 60.4861C722.968 59.1736 722.759 57.9506 722.342 56.8171C721.924 55.6836 721.281 54.7674 720.411 54.0685C719.542 53.3696 718.434 53.0202 717.088 53.0202C715.741 53.0202 714.633 53.3696 713.764 54.0685C712.894 54.7674 712.251 55.6836 711.833 56.8171C711.416 57.9506 711.207 59.1736 711.207 60.4861C711.207 61.7986 711.416 63.0174 711.833 64.1424C712.251 65.2674 712.894 66.175 713.764 66.8654C714.633 67.5557 715.741 67.9009 717.088 67.9009ZM738.568 70.6111C736.727 70.6111 735.142 70.1765 733.812 69.3071C732.483 68.4378 731.46 67.2404 730.744 65.7148C730.028 64.1892 729.67 62.4463 729.67 60.4861C729.67 58.4918 730.037 56.7319 730.77 55.2063C731.511 53.6722 732.542 52.4748 733.863 51.614C735.193 50.7446 736.744 50.31 738.517 50.31C739.898 50.31 741.142 50.5657 742.25 51.077C743.358 51.5884 744.265 52.3043 744.973 53.2248C745.68 54.1452 746.119 55.2191 746.29 56.4463H743.273C743.042 55.5515 742.531 54.7588 741.738 54.0685C740.954 53.3696 739.898 53.0202 738.568 53.0202C737.392 53.0202 736.361 53.327 735.474 53.9407C734.596 54.5458 733.91 55.4023 733.416 56.5103C732.93 57.6097 732.687 58.9009 732.687 60.3838C732.687 61.9009 732.926 63.2219 733.403 64.3469C733.889 65.4719 734.571 66.3455 735.449 66.9677C736.335 67.5898 737.375 67.9009 738.568 67.9009C739.352 67.9009 740.064 67.7645 740.703 67.4918C741.342 67.2191 741.883 66.827 742.327 66.3157C742.77 65.8043 743.085 65.1907 743.273 64.4748H746.29C746.119 65.6338 745.697 66.6779 745.024 67.6069C744.359 68.5273 743.477 69.2603 742.378 69.8057C741.287 70.3427 740.017 70.6111 738.568 70.6111ZM758.933 70.6111C757.041 70.6111 755.409 70.1935 754.037 69.3583C752.673 68.5145 751.621 67.3384 750.879 65.8299C750.146 64.3128 749.78 62.5486 749.78 60.5373C749.78 58.5259 750.146 56.7532 750.879 55.2191C751.621 53.6765 752.652 52.4748 753.973 51.614C755.302 50.7446 756.853 50.31 758.626 50.31C759.649 50.31 760.659 50.4804 761.656 50.8213C762.653 51.1623 763.561 51.7162 764.379 52.4833C765.197 53.2418 765.849 54.2475 766.335 55.5003C766.821 56.7532 767.064 58.2958 767.064 60.1282V61.4066H751.927V58.7986H763.996C763.996 57.6907 763.774 56.702 763.331 55.8327C762.896 54.9634 762.274 54.2773 761.464 53.7745C760.663 53.2716 759.717 53.0202 758.626 53.0202C757.425 53.0202 756.385 53.3185 755.507 53.9151C754.638 54.5032 753.969 55.2702 753.5 56.2162C753.031 57.1623 752.797 58.1765 752.797 59.2588V60.9975C752.797 62.4804 753.052 63.7375 753.564 64.7688C754.084 65.7915 754.804 66.5713 755.724 67.1083C756.645 67.6367 757.714 67.9009 758.933 67.9009C759.726 67.9009 760.442 67.7901 761.081 67.5685C761.728 67.3384 762.287 66.9975 762.755 66.5458C763.224 66.0855 763.586 65.5145 763.842 64.8327L766.757 65.6509C766.45 66.6395 765.934 67.5088 765.21 68.2588C764.486 69.0003 763.591 69.5799 762.525 69.9975C761.46 70.4066 760.263 70.6111 758.933 70.6111ZM761.132 48.2134L758.473 44.6338L755.814 48.2134H752.95V48.0088L757.092 42.6907H759.853L763.996 48.0088V48.2134H761.132ZM71.1122 121.566V94.5657H74.027V97.685H74.3849C74.6065 97.3441 74.9133 96.9094 75.3054 96.381C75.7059 95.8441 76.277 95.3668 77.0184 94.9492C77.7684 94.523 78.7826 94.31 80.0611 94.31C81.7145 94.31 83.1719 94.7233 84.4332 95.55C85.6946 96.3767 86.679 97.5486 87.3863 99.0657C88.0937 100.583 88.4474 102.372 88.4474 104.435C88.4474 106.515 88.0937 108.317 87.3863 109.843C86.679 111.36 85.6988 112.536 84.446 113.371C83.1932 114.198 81.7486 114.611 80.1122 114.611C78.8508 114.611 77.8409 114.402 77.0824 113.985C76.3238 113.559 75.74 113.077 75.3309 112.54C74.9219 111.995 74.6065 111.543 74.3849 111.185H74.1292V121.566H71.1122ZM74.0781 104.384C74.0781 105.867 74.2954 107.175 74.7301 108.309C75.1648 109.434 75.7997 110.316 76.6349 110.955C77.4701 111.586 78.4929 111.901 79.7031 111.901C80.9645 111.901 82.017 111.569 82.8608 110.904C83.713 110.23 84.3523 109.327 84.7784 108.194C85.213 107.051 85.4304 105.782 85.4304 104.384C85.4304 103.003 85.2173 101.759 84.7912 100.651C84.3736 99.5344 83.7386 98.6523 82.8863 98.0046C82.0426 97.3483 80.9815 97.0202 79.7031 97.0202C78.4758 97.0202 77.4446 97.3313 76.6094 97.9534C75.7741 98.5671 75.1434 99.4279 74.7173 100.536C74.2912 101.635 74.0781 102.918 74.0781 104.384ZM101.027 114.611C99.2542 114.611 97.6988 114.189 96.3608 113.345C95.0312 112.502 93.9915 111.321 93.2415 109.804C92.5 108.287 92.1292 106.515 92.1292 104.486C92.1292 102.441 92.5 100.655 93.2415 99.1296C93.9915 97.604 95.0312 96.4194 96.3608 95.5756C97.6988 94.7319 99.2542 94.31 101.027 94.31C102.8 94.31 104.351 94.7319 105.68 95.5756C107.018 96.4194 108.058 97.604 108.8 99.1296C109.55 100.655 109.925 102.441 109.925 104.486C109.925 106.515 109.55 108.287 108.8 109.804C108.058 111.321 107.018 112.502 105.68 113.345C104.351 114.189 102.8 114.611 101.027 114.611ZM101.027 111.901C102.374 111.901 103.482 111.556 104.351 110.865C105.22 110.175 105.864 109.267 106.281 108.142C106.699 107.017 106.908 105.799 106.908 104.486C106.908 103.174 106.699 101.951 106.281 100.817C105.864 99.6836 105.22 98.7674 104.351 98.0685C103.482 97.3696 102.374 97.0202 101.027 97.0202C99.6804 97.0202 98.5724 97.3696 97.7031 98.0685C96.8338 98.7674 96.1903 99.6836 95.7727 100.817C95.3551 101.951 95.1463 103.174 95.1463 104.486C95.1463 105.799 95.3551 107.017 95.7727 108.142C96.1903 109.267 96.8338 110.175 97.7031 110.865C98.5724 111.556 99.6804 111.901 101.027 111.901ZM121.945 114.611C120.309 114.611 118.864 114.198 117.611 113.371C116.358 112.536 115.378 111.36 114.671 109.843C113.963 108.317 113.61 106.515 113.61 104.435C113.61 102.372 113.963 100.583 114.671 99.0657C115.378 97.5486 116.363 96.3767 117.624 95.55C118.885 94.7233 120.343 94.31 121.996 94.31C123.274 94.31 124.284 94.523 125.026 94.9492C125.776 95.3668 126.347 95.8441 126.739 96.381C127.14 96.9094 127.451 97.3441 127.672 97.685H127.928V88.0202H130.945V114.202H128.03V111.185H127.672C127.451 111.543 127.135 111.995 126.726 112.54C126.317 113.077 125.733 113.559 124.975 113.985C124.216 114.402 123.206 114.611 121.945 114.611ZM122.354 111.901C123.564 111.901 124.587 111.586 125.422 110.955C126.257 110.316 126.892 109.434 127.327 108.309C127.762 107.175 127.979 105.867 127.979 104.384C127.979 102.918 127.766 101.635 127.34 100.536C126.914 99.4279 126.283 98.5671 125.448 97.9534C124.613 97.3313 123.581 97.0202 122.354 97.0202C121.076 97.0202 120.01 97.3483 119.158 98.0046C118.314 98.6523 117.679 99.5344 117.253 100.651C116.836 101.759 116.627 103.003 116.627 104.384C116.627 105.782 116.84 107.051 117.266 108.194C117.701 109.327 118.34 110.23 119.184 110.904C120.036 111.569 121.093 111.901 122.354 111.901ZM145.122 114.611C143.23 114.611 141.598 114.194 140.226 113.358C138.863 112.515 137.81 111.338 137.069 109.83C136.336 108.313 135.969 106.549 135.969 104.537C135.969 102.526 136.336 100.753 137.069 99.2191C137.81 97.6765 138.841 96.4748 140.162 95.614C141.492 94.7446 143.043 94.31 144.816 94.31C145.838 94.31 146.848 94.4804 147.846 94.8213C148.843 95.1623 149.75 95.7162 150.569 96.4833C151.387 97.2418 152.039 98.2475 152.524 99.5003C153.01 100.753 153.253 102.296 153.253 104.128V105.407H138.117V102.799H150.185C150.185 101.691 149.963 100.702 149.52 99.8327C149.086 98.9634 148.463 98.2773 147.654 97.7745C146.853 97.2716 145.907 97.0202 144.816 97.0202C143.614 97.0202 142.574 97.3185 141.696 97.9151C140.827 98.5032 140.158 99.2702 139.689 100.216C139.221 101.162 138.986 102.176 138.986 103.259V104.997C138.986 106.48 139.242 107.738 139.753 108.769C140.273 109.792 140.993 110.571 141.914 111.108C142.834 111.637 143.904 111.901 145.122 111.901C145.915 111.901 146.631 111.79 147.27 111.569C147.918 111.338 148.476 110.997 148.945 110.546C149.414 110.086 149.776 109.515 150.032 108.833L152.946 109.651C152.64 110.64 152.124 111.509 151.399 112.259C150.675 113 149.78 113.58 148.715 113.997C147.649 114.407 146.452 114.611 145.122 114.611ZM157.843 114.202V94.5657H160.757V97.5316H160.962C161.32 96.56 161.968 95.7716 162.905 95.1665C163.843 94.5614 164.899 94.2588 166.076 94.2588C166.297 94.2588 166.574 94.2631 166.907 94.2716C167.239 94.2802 167.49 94.2929 167.661 94.31V97.3782C167.559 97.3526 167.324 97.3142 166.958 97.2631C166.6 97.2034 166.221 97.1736 165.82 97.1736C164.865 97.1736 164.013 97.3739 163.263 97.7745C162.522 98.1665 161.934 98.712 161.499 99.4108C161.073 100.101 160.86 100.89 160.86 101.776V114.202H157.843ZM171.237 114.202V94.5657H174.254V114.202H171.237ZM172.771 91.2929C172.183 91.2929 171.676 91.0927 171.25 90.6921C170.832 90.2915 170.624 89.81 170.624 89.2475C170.624 88.685 170.832 88.2034 171.25 87.8029C171.676 87.4023 172.183 87.202 172.771 87.202C173.359 87.202 173.862 87.4023 174.28 87.8029C174.706 88.2034 174.919 88.685 174.919 89.2475C174.919 89.81 174.706 90.2915 174.28 90.6921C173.862 91.0927 173.359 91.2929 172.771 91.2929ZM185.559 114.662C184.314 114.662 183.185 114.428 182.171 113.959C181.157 113.482 180.351 112.796 179.755 111.901C179.158 110.997 178.86 109.907 178.86 108.628C178.86 107.503 179.081 106.591 179.524 105.892C179.968 105.185 180.56 104.631 181.301 104.23C182.043 103.83 182.861 103.532 183.756 103.336C184.659 103.131 185.567 102.969 186.479 102.85C187.672 102.696 188.64 102.581 189.381 102.505C190.131 102.419 190.676 102.279 191.017 102.083C191.367 101.887 191.542 101.546 191.542 101.06V100.958C191.542 99.6963 191.196 98.7162 190.506 98.0174C189.824 97.3185 188.789 96.9691 187.399 96.9691C185.959 96.9691 184.83 97.2844 184.012 97.9151C183.194 98.5458 182.618 99.2191 182.286 99.935L179.422 98.9123C179.934 97.7191 180.615 96.7901 181.468 96.1253C182.328 95.452 183.266 94.9833 184.28 94.7191C185.303 94.4463 186.309 94.31 187.297 94.31C187.928 94.31 188.652 94.3867 189.471 94.5401C190.297 94.685 191.094 94.9875 191.861 95.4478C192.637 95.908 193.28 96.6026 193.792 97.5316C194.303 98.4605 194.559 99.7049 194.559 101.265V114.202H191.542V111.543H191.388C191.184 111.969 190.843 112.425 190.365 112.911C189.888 113.397 189.253 113.81 188.461 114.151C187.668 114.492 186.701 114.662 185.559 114.662ZM186.019 111.952C187.212 111.952 188.218 111.718 189.036 111.249C189.863 110.78 190.485 110.175 190.902 109.434C191.328 108.692 191.542 107.912 191.542 107.094V104.333C191.414 104.486 191.132 104.627 190.698 104.755C190.272 104.874 189.777 104.98 189.215 105.074C188.661 105.159 188.12 105.236 187.591 105.304C187.071 105.364 186.649 105.415 186.326 105.458C185.542 105.56 184.809 105.726 184.127 105.956C183.453 106.178 182.908 106.515 182.49 106.966C182.081 107.409 181.877 108.015 181.877 108.782C181.877 109.83 182.265 110.622 183.04 111.159C183.824 111.688 184.817 111.952 186.019 111.952ZM210.19 114.202V94.5657H213.105V97.6338H213.361C213.77 96.5855 214.43 95.7716 215.342 95.1921C216.254 94.604 217.349 94.31 218.628 94.31C219.923 94.31 221.001 94.604 221.862 95.1921C222.732 95.7716 223.409 96.5855 223.895 97.6338H224.099C224.602 96.6196 225.357 95.8142 226.362 95.2177C227.368 94.6125 228.574 94.31 229.98 94.31C231.736 94.31 233.172 94.8597 234.288 95.9591C235.405 97.05 235.963 98.7503 235.963 101.06V114.202H232.946V101.06C232.946 99.6111 232.55 98.5756 231.757 97.9534C230.964 97.3313 230.031 97.0202 228.957 97.0202C227.577 97.0202 226.507 97.4378 225.749 98.273C224.99 99.0998 224.611 100.148 224.611 101.418V114.202H221.543V100.753C221.543 99.6367 221.18 98.7375 220.456 98.0557C219.732 97.3654 218.798 97.0202 217.656 97.0202C216.872 97.0202 216.139 97.229 215.457 97.6466C214.784 98.0642 214.239 98.6438 213.821 99.3853C213.412 100.118 213.207 100.966 213.207 101.929V114.202H210.19ZM249.712 114.611C247.82 114.611 246.188 114.194 244.816 113.358C243.452 112.515 242.4 111.338 241.658 109.83C240.925 108.313 240.559 106.549 240.559 104.537C240.559 102.526 240.925 100.753 241.658 99.2191C242.4 97.6765 243.431 96.4748 244.752 95.614C246.082 94.7446 247.633 94.31 249.406 94.31C250.428 94.31 251.438 94.4804 252.435 94.8213C253.433 95.1623 254.34 95.7162 255.158 96.4833C255.977 97.2418 256.629 98.2475 257.114 99.5003C257.6 100.753 257.843 102.296 257.843 104.128V105.407H242.707V102.799H254.775C254.775 101.691 254.553 100.702 254.11 99.8327C253.675 98.9634 253.053 98.2773 252.244 97.7745C251.442 97.2716 250.496 97.0202 249.406 97.0202C248.204 97.0202 247.164 97.3185 246.286 97.9151C245.417 98.5032 244.748 99.2702 244.279 100.216C243.81 101.162 243.576 102.176 243.576 103.259V104.997C243.576 106.48 243.832 107.738 244.343 108.769C244.863 109.792 245.583 110.571 246.504 111.108C247.424 111.637 248.494 111.901 249.712 111.901C250.505 111.901 251.221 111.79 251.86 111.569C252.508 111.338 253.066 110.997 253.535 110.546C254.004 110.086 254.366 109.515 254.621 108.833L257.536 109.651C257.229 110.64 256.714 111.509 255.989 112.259C255.265 113 254.37 113.58 253.305 113.997C252.239 114.407 251.042 114.611 249.712 114.611ZM278.336 114.662C277.092 114.662 275.962 114.428 274.948 113.959C273.934 113.482 273.129 112.796 272.532 111.901C271.935 110.997 271.637 109.907 271.637 108.628C271.637 107.503 271.859 106.591 272.302 105.892C272.745 105.185 273.337 104.631 274.079 104.23C274.82 103.83 275.638 103.532 276.533 103.336C277.437 103.131 278.344 102.969 279.256 102.85C280.45 102.696 281.417 102.581 282.158 102.505C282.908 102.419 283.454 102.279 283.795 102.083C284.144 101.887 284.319 101.546 284.319 101.06V100.958C284.319 99.6963 283.974 98.7162 283.283 98.0174C282.602 97.3185 281.566 96.9691 280.177 96.9691C278.736 96.9691 277.607 97.2844 276.789 97.9151C275.971 98.5458 275.396 99.2191 275.063 99.935L272.2 98.9123C272.711 97.7191 273.393 96.7901 274.245 96.1253C275.106 95.452 276.043 94.9833 277.058 94.7191C278.08 94.4463 279.086 94.31 280.075 94.31C280.705 94.31 281.43 94.3867 282.248 94.5401C283.075 94.685 283.871 94.9875 284.638 95.4478C285.414 95.908 286.058 96.6026 286.569 97.5316C287.08 98.4605 287.336 99.7049 287.336 101.265V114.202H284.319V111.543H284.165C283.961 111.969 283.62 112.425 283.143 112.911C282.665 113.397 282.031 113.81 281.238 114.151C280.445 114.492 279.478 114.662 278.336 114.662ZM278.796 111.952C279.989 111.952 280.995 111.718 281.813 111.249C282.64 110.78 283.262 110.175 283.68 109.434C284.106 108.692 284.319 107.912 284.319 107.094V104.333C284.191 104.486 283.91 104.627 283.475 104.755C283.049 104.874 282.555 104.98 281.992 105.074C281.438 105.159 280.897 105.236 280.369 105.304C279.849 105.364 279.427 105.415 279.103 105.458C278.319 105.56 277.586 105.726 276.904 105.956C276.231 106.178 275.685 106.515 275.268 106.966C274.859 107.409 274.654 108.015 274.654 108.782C274.654 109.83 275.042 110.622 275.817 111.159C276.602 111.688 277.594 111.952 278.796 111.952ZM292.843 94.5657H295.86V115.634C295.86 116.844 295.651 117.892 295.233 118.779C294.824 119.665 294.202 120.351 293.367 120.837C292.54 121.323 291.496 121.566 290.235 121.566C290.132 121.566 290.03 121.566 289.928 121.566C289.826 121.566 289.723 121.566 289.621 121.566V118.753C289.723 118.753 289.817 118.753 289.902 118.753C289.988 118.753 290.081 118.753 290.184 118.753C291.104 118.753 291.777 118.48 292.203 117.935C292.63 117.398 292.843 116.631 292.843 115.634V94.5657ZM294.326 91.2929C293.738 91.2929 293.23 91.0927 292.804 90.6921C292.387 90.2915 292.178 89.81 292.178 89.2475C292.178 88.685 292.387 88.2034 292.804 87.8029C293.23 87.4023 293.738 87.202 294.326 87.202C294.914 87.202 295.417 87.4023 295.834 87.8029C296.26 88.2034 296.473 88.685 296.473 89.2475C296.473 89.81 296.26 90.2915 295.834 90.6921C295.417 91.0927 294.914 91.2929 294.326 91.2929ZM313.761 106.174V94.5657H316.778V114.202H313.761V110.878H313.556C313.096 111.875 312.38 112.723 311.408 113.422C310.437 114.113 309.209 114.458 307.727 114.458C306.499 114.458 305.408 114.189 304.454 113.652C303.499 113.107 302.749 112.289 302.204 111.198C301.658 110.098 301.386 108.713 301.386 107.043V94.5657H304.403V106.838C304.403 108.27 304.803 109.412 305.604 110.265C306.414 111.117 307.445 111.543 308.698 111.543C309.448 111.543 310.211 111.351 310.986 110.968C311.771 110.584 312.427 109.996 312.955 109.203C313.492 108.411 313.761 107.401 313.761 106.174ZM329.718 114.611C328.082 114.611 326.637 114.198 325.385 113.371C324.132 112.536 323.152 111.36 322.444 109.843C321.737 108.317 321.383 106.515 321.383 104.435C321.383 102.372 321.737 100.583 322.444 99.0657C323.152 97.5486 324.136 96.3767 325.397 95.55C326.659 94.7233 328.116 94.31 329.77 94.31C331.048 94.31 332.058 94.523 332.799 94.9492C333.549 95.3668 334.12 95.8441 334.512 96.381C334.913 96.9094 335.224 97.3441 335.446 97.685H335.701V88.0202H338.718V114.202H335.804V111.185H335.446C335.224 111.543 334.909 111.995 334.5 112.54C334.091 113.077 333.507 113.559 332.748 113.985C331.99 114.402 330.98 114.611 329.718 114.611ZM330.127 111.901C331.338 111.901 332.36 111.586 333.196 110.955C334.031 110.316 334.666 109.434 335.1 108.309C335.535 107.175 335.752 105.867 335.752 104.384C335.752 102.918 335.539 101.635 335.113 100.536C334.687 99.4279 334.056 98.5671 333.221 97.9534C332.386 97.3313 331.355 97.0202 330.127 97.0202C328.849 97.0202 327.784 97.3483 326.931 98.0046C326.088 98.6523 325.453 99.5344 325.027 100.651C324.609 101.759 324.4 103.003 324.4 104.384C324.4 105.782 324.613 107.051 325.039 108.194C325.474 109.327 326.113 110.23 326.957 110.904C327.809 111.569 328.866 111.901 330.127 111.901ZM350.441 114.662C349.197 114.662 348.068 114.428 347.054 113.959C346.039 113.482 345.234 112.796 344.637 111.901C344.041 110.997 343.743 109.907 343.743 108.628C343.743 107.503 343.964 106.591 344.407 105.892C344.85 105.185 345.443 104.631 346.184 104.23C346.926 103.83 347.744 103.532 348.639 103.336C349.542 103.131 350.45 102.969 351.362 102.85C352.555 102.696 353.522 102.581 354.264 102.505C355.014 102.419 355.559 102.279 355.9 102.083C356.25 101.887 356.424 101.546 356.424 101.06V100.958C356.424 99.6963 356.079 98.7162 355.389 98.0174C354.707 97.3185 353.671 96.9691 352.282 96.9691C350.842 96.9691 349.713 97.2844 348.895 97.9151C348.076 98.5458 347.501 99.2191 347.169 99.935L344.305 98.9123C344.816 97.7191 345.498 96.7901 346.35 96.1253C347.211 95.452 348.149 94.9833 349.163 94.7191C350.186 94.4463 351.191 94.31 352.18 94.31C352.811 94.31 353.535 94.3867 354.353 94.5401C355.18 94.685 355.977 94.9875 356.744 95.4478C357.52 95.908 358.163 96.6026 358.674 97.5316C359.186 98.4605 359.441 99.7049 359.441 101.265V114.202H356.424V111.543H356.271C356.066 111.969 355.725 112.425 355.248 112.911C354.771 113.397 354.136 113.81 353.343 114.151C352.551 114.492 351.583 114.662 350.441 114.662ZM350.902 111.952C352.095 111.952 353.1 111.718 353.919 111.249C354.745 110.78 355.368 110.175 355.785 109.434C356.211 108.692 356.424 107.912 356.424 107.094V104.333C356.296 104.486 356.015 104.627 355.581 104.755C355.154 104.874 354.66 104.98 354.098 105.074C353.544 105.159 353.002 105.236 352.474 105.304C351.954 105.364 351.532 105.415 351.208 105.458C350.424 105.56 349.691 105.726 349.01 105.956C348.336 106.178 347.791 106.515 347.373 106.966C346.964 107.409 346.76 108.015 346.76 108.782C346.76 109.83 347.147 110.622 347.923 111.159C348.707 111.688 349.7 111.952 350.902 111.952ZM364.948 114.202V94.5657H367.863V97.5316H368.067C368.425 96.56 369.073 95.7716 370.011 95.1665C370.948 94.5614 372.005 94.2588 373.181 94.2588C373.403 94.2588 373.68 94.2631 374.012 94.2716C374.344 94.2802 374.596 94.2929 374.766 94.31V97.3782C374.664 97.3526 374.43 97.3142 374.063 97.2631C373.705 97.2034 373.326 97.1736 372.925 97.1736C371.971 97.1736 371.119 97.3739 370.369 97.7745C369.627 98.1665 369.039 98.712 368.604 99.4108C368.178 100.101 367.965 100.89 367.965 101.776V114.202H364.948ZM394.246 114.662C393.002 114.662 391.872 114.428 390.858 113.959C389.844 113.482 389.039 112.796 388.442 111.901C387.846 110.997 387.547 109.907 387.547 108.628C387.547 107.503 387.769 106.591 388.212 105.892C388.655 105.185 389.247 104.631 389.989 104.23C390.73 103.83 391.549 103.532 392.444 103.336C393.347 103.131 394.255 102.969 395.167 102.85C396.36 102.696 397.327 102.581 398.069 102.505C398.819 102.419 399.364 102.279 399.705 102.083C400.054 101.887 400.229 101.546 400.229 101.06V100.958C400.229 99.6963 399.884 98.7162 399.194 98.0174C398.512 97.3185 397.476 96.9691 396.087 96.9691C394.647 96.9691 393.517 97.2844 392.699 97.9151C391.881 98.5458 391.306 99.2191 390.973 99.935L388.11 98.9123C388.621 97.7191 389.303 96.7901 390.155 96.1253C391.016 95.452 391.953 94.9833 392.968 94.7191C393.99 94.4463 394.996 94.31 395.985 94.31C396.615 94.31 397.34 94.3867 398.158 94.5401C398.985 94.685 399.782 94.9875 400.549 95.4478C401.324 95.908 401.968 96.6026 402.479 97.5316C402.99 98.4605 403.246 99.7049 403.246 101.265V114.202H400.229V111.543H400.076C399.871 111.969 399.53 112.425 399.053 112.911C398.576 113.397 397.941 113.81 397.148 114.151C396.355 114.492 395.388 114.662 394.246 114.662ZM394.706 111.952C395.899 111.952 396.905 111.718 397.723 111.249C398.55 110.78 399.172 110.175 399.59 109.434C400.016 108.692 400.229 107.912 400.229 107.094V104.333C400.101 104.486 399.82 104.627 399.385 104.755C398.959 104.874 398.465 104.98 397.902 105.074C397.348 105.159 396.807 105.236 396.279 105.304C395.759 105.364 395.337 105.415 395.013 105.458C394.229 105.56 393.496 105.726 392.814 105.956C392.141 106.178 391.596 106.515 391.178 106.966C390.769 107.409 390.564 108.015 390.564 108.782C390.564 109.83 390.952 110.622 391.728 111.159C392.512 111.688 393.505 111.952 394.706 111.952ZM427.418 94.5657V97.1225H417.241V94.5657H427.418ZM420.207 89.8611H423.224V108.577C423.224 109.429 423.348 110.069 423.595 110.495C423.851 110.912 424.175 111.194 424.567 111.338C424.967 111.475 425.389 111.543 425.832 111.543C426.165 111.543 426.437 111.526 426.651 111.492C426.864 111.449 427.034 111.415 427.162 111.39L427.776 114.1C427.571 114.176 427.285 114.253 426.919 114.33C426.553 114.415 426.088 114.458 425.526 114.458C424.673 114.458 423.838 114.274 423.02 113.908C422.21 113.542 421.537 112.983 421 112.233C420.472 111.483 420.207 110.537 420.207 109.395V89.8611ZM431.956 114.202V94.5657H434.973V114.202H431.956ZM433.49 91.2929C432.902 91.2929 432.395 91.0927 431.969 90.6921C431.551 90.2915 431.342 89.81 431.342 89.2475C431.342 88.685 431.551 88.2034 431.969 87.8029C432.395 87.4023 432.902 87.202 433.49 87.202C434.078 87.202 434.581 87.4023 434.999 87.8029C435.425 88.2034 435.638 88.685 435.638 89.2475C435.638 89.81 435.425 90.2915 434.999 90.6921C434.581 91.0927 434.078 91.2929 433.49 91.2929ZM440.499 114.202V94.5657H443.414V97.5316H443.618C443.976 96.56 444.624 95.7716 445.561 95.1665C446.499 94.5614 447.556 94.2588 448.732 94.2588C448.953 94.2588 449.23 94.2631 449.563 94.2716C449.895 94.2802 450.147 94.2929 450.317 94.31V97.3782C450.215 97.3526 449.98 97.3142 449.614 97.2631C449.256 97.2034 448.877 97.1736 448.476 97.1736C447.522 97.1736 446.669 97.3739 445.919 97.7745C445.178 98.1665 444.59 98.712 444.155 99.4108C443.729 100.101 443.516 100.89 443.516 101.776V114.202H440.499ZM459.672 114.662C458.428 114.662 457.298 114.428 456.284 113.959C455.27 113.482 454.464 112.796 453.868 111.901C453.271 110.997 452.973 109.907 452.973 108.628C452.973 107.503 453.195 106.591 453.638 105.892C454.081 105.185 454.673 104.631 455.415 104.23C456.156 103.83 456.974 103.532 457.869 103.336C458.773 103.131 459.68 102.969 460.592 102.85C461.785 102.696 462.753 102.581 463.494 102.505C464.244 102.419 464.79 102.279 465.131 102.083C465.48 101.887 465.655 101.546 465.655 101.06V100.958C465.655 99.6963 465.31 98.7162 464.619 98.0174C463.937 97.3185 462.902 96.9691 461.513 96.9691C460.072 96.9691 458.943 97.2844 458.125 97.9151C457.307 98.5458 456.732 99.2191 456.399 99.935L453.535 98.9123C454.047 97.7191 454.729 96.7901 455.581 96.1253C456.442 95.452 457.379 94.9833 458.393 94.7191C459.416 94.4463 460.422 94.31 461.41 94.31C462.041 94.31 462.766 94.3867 463.584 94.5401C464.41 94.685 465.207 94.9875 465.974 95.4478C466.75 95.908 467.393 96.6026 467.905 97.5316C468.416 98.4605 468.672 99.7049 468.672 101.265V114.202H465.655V111.543H465.501C465.297 111.969 464.956 112.425 464.479 112.911C464.001 113.397 463.366 113.81 462.574 114.151C461.781 114.492 460.814 114.662 459.672 114.662ZM460.132 111.952C461.325 111.952 462.331 111.718 463.149 111.249C463.976 110.78 464.598 110.175 465.016 109.434C465.442 108.692 465.655 107.912 465.655 107.094V104.333C465.527 104.486 465.246 104.627 464.811 104.755C464.385 104.874 463.891 104.98 463.328 105.074C462.774 105.159 462.233 105.236 461.705 105.304C461.185 105.364 460.763 105.415 460.439 105.458C459.655 105.56 458.922 105.726 458.24 105.956C457.567 106.178 457.021 106.515 456.604 106.966C456.195 107.409 455.99 108.015 455.99 108.782C455.99 109.83 456.378 110.622 457.153 111.159C457.937 111.688 458.93 111.952 460.132 111.952ZM474.179 114.202V94.5657H477.093V97.5316H477.298C477.656 96.56 478.304 95.7716 479.241 95.1665C480.179 94.5614 481.235 94.2588 482.412 94.2588C482.633 94.2588 482.91 94.2631 483.243 94.2716C483.575 94.2802 483.826 94.2929 483.997 94.31V97.3782C483.895 97.3526 483.66 97.3142 483.294 97.2631C482.936 97.2034 482.556 97.1736 482.156 97.1736C481.201 97.1736 480.349 97.3739 479.599 97.7745C478.858 98.1665 478.27 98.712 477.835 99.4108C477.409 100.101 477.196 100.89 477.196 101.776V114.202H474.179ZM505.675 114.611C503.903 114.611 502.347 114.189 501.009 113.345C499.68 112.502 498.64 111.321 497.89 109.804C497.148 108.287 496.778 106.515 496.778 104.486C496.778 102.441 497.148 100.655 497.89 99.1296C498.64 97.604 499.68 96.4194 501.009 95.5756C502.347 94.7319 503.903 94.31 505.675 94.31C507.448 94.31 508.999 94.7319 510.329 95.5756C511.667 96.4194 512.707 97.604 513.448 99.1296C514.198 100.655 514.573 102.441 514.573 104.486C514.573 106.515 514.198 108.287 513.448 109.804C512.707 111.321 511.667 112.502 510.329 113.345C508.999 114.189 507.448 114.611 505.675 114.611ZM505.675 111.901C507.022 111.901 508.13 111.556 508.999 110.865C509.869 110.175 510.512 109.267 510.93 108.142C511.347 107.017 511.556 105.799 511.556 104.486C511.556 103.174 511.347 101.951 510.93 100.817C510.512 99.6836 509.869 98.7674 508.999 98.0685C508.13 97.3696 507.022 97.0202 505.675 97.0202C504.329 97.0202 503.221 97.3696 502.352 98.0685C501.482 98.7674 500.839 99.6836 500.421 100.817C500.004 101.951 499.795 103.174 499.795 104.486C499.795 105.799 500.004 107.017 500.421 108.142C500.839 109.267 501.482 110.175 502.352 110.865C503.221 111.556 504.329 111.901 505.675 111.901ZM533.088 98.9634L530.377 99.7304C530.207 99.2787 529.956 98.8398 529.623 98.4137C529.299 97.979 528.856 97.6211 528.294 97.3398C527.731 97.0586 527.011 96.9179 526.133 96.9179C524.931 96.9179 523.93 97.1949 523.129 97.7489C522.336 98.2944 521.94 98.989 521.94 99.8327C521.94 100.583 522.213 101.175 522.758 101.61C523.304 102.044 524.156 102.407 525.315 102.696L528.23 103.412C529.985 103.838 531.294 104.49 532.154 105.368C533.015 106.238 533.446 107.358 533.446 108.73C533.446 109.855 533.122 110.861 532.474 111.747C531.835 112.634 530.94 113.333 529.789 113.844C528.639 114.355 527.301 114.611 525.775 114.611C523.772 114.611 522.115 114.176 520.802 113.307C519.49 112.438 518.659 111.168 518.309 109.497L521.173 108.782C521.446 109.838 521.961 110.631 522.72 111.159C523.487 111.688 524.488 111.952 525.724 111.952C527.13 111.952 528.247 111.654 529.073 111.057C529.909 110.452 530.326 109.728 530.326 108.884C530.326 108.202 530.088 107.631 529.61 107.171C529.133 106.702 528.4 106.353 527.412 106.122L524.139 105.355C522.341 104.929 521.02 104.269 520.176 103.374C519.341 102.47 518.923 101.341 518.923 99.9861C518.923 98.8782 519.234 97.898 519.856 97.0458C520.487 96.1935 521.343 95.5245 522.426 95.0387C523.517 94.5529 524.752 94.31 526.133 94.31C528.076 94.31 529.602 94.7361 530.71 95.5884C531.826 96.4407 532.619 97.5657 533.088 98.9634ZM548.112 114.202V94.5657H551.027V97.6338H551.283C551.692 96.5855 552.352 95.7716 553.264 95.1921C554.176 94.604 555.271 94.31 556.55 94.31C557.845 94.31 558.923 94.604 559.784 95.1921C560.653 95.7716 561.331 96.5855 561.817 97.6338H562.021C562.524 96.6196 563.278 95.8142 564.284 95.2177C565.29 94.6125 566.496 94.31 567.902 94.31C569.658 94.31 571.094 94.8597 572.21 95.9591C573.327 97.05 573.885 98.7503 573.885 101.06V114.202H570.868V101.06C570.868 99.6111 570.472 98.5756 569.679 97.9534C568.886 97.3313 567.953 97.0202 566.879 97.0202C565.499 97.0202 564.429 97.4378 563.67 98.273C562.912 99.0998 562.533 100.148 562.533 101.418V114.202H559.464V100.753C559.464 99.6367 559.102 98.7375 558.378 98.0557C557.653 97.3654 556.72 97.0202 555.578 97.0202C554.794 97.0202 554.061 97.229 553.379 97.6466C552.706 98.0642 552.16 98.6438 551.743 99.3853C551.334 100.118 551.129 100.966 551.129 101.929V114.202H548.112ZM587.379 114.611C585.606 114.611 584.05 114.189 582.712 113.345C581.383 112.502 580.343 111.321 579.593 109.804C578.852 108.287 578.481 106.515 578.481 104.486C578.481 102.441 578.852 100.655 579.593 99.1296C580.343 97.604 581.383 96.4194 582.712 95.5756C584.05 94.7319 585.606 94.31 587.379 94.31C589.151 94.31 590.702 94.7319 592.032 95.5756C593.37 96.4194 594.41 97.604 595.151 99.1296C595.901 100.655 596.276 102.441 596.276 104.486C596.276 106.515 595.901 108.287 595.151 109.804C594.41 111.321 593.37 112.502 592.032 113.345C590.702 114.189 589.151 114.611 587.379 114.611ZM587.379 111.901C588.725 111.901 589.833 111.556 590.702 110.865C591.572 110.175 592.215 109.267 592.633 108.142C593.05 107.017 593.259 105.799 593.259 104.486C593.259 103.174 593.05 101.951 592.633 100.817C592.215 99.6836 591.572 98.7674 590.702 98.0685C589.833 97.3696 588.725 97.0202 587.379 97.0202C586.032 97.0202 584.924 97.3696 584.055 98.0685C583.185 98.7674 582.542 99.6836 582.124 100.817C581.707 101.951 581.498 103.174 581.498 104.486C581.498 105.799 581.707 107.017 582.124 108.142C582.542 109.267 583.185 110.175 584.055 110.865C584.924 111.556 586.032 111.901 587.379 111.901ZM603.899 102.39V114.202H600.882V94.5657H603.796V97.6338H604.052C604.512 96.6367 605.211 95.8355 606.149 95.2304C607.086 94.6168 608.296 94.31 609.779 94.31C611.109 94.31 612.272 94.5827 613.27 95.1282C614.267 95.6651 615.042 96.4833 615.596 97.5827C616.15 98.6736 616.427 100.054 616.427 101.725V114.202H613.41V101.929C613.41 100.387 613.01 99.185 612.208 98.3242C611.407 97.4549 610.308 97.0202 608.91 97.0202C607.947 97.0202 607.086 97.229 606.328 97.6466C605.578 98.0642 604.985 98.6736 604.551 99.4748C604.116 100.276 603.899 101.247 603.899 102.39ZM635.849 98.9634L633.139 99.7304C632.969 99.2787 632.717 98.8398 632.385 98.4137C632.061 97.979 631.618 97.6211 631.055 97.3398C630.493 97.0586 629.773 96.9179 628.895 96.9179C627.693 96.9179 626.692 97.1949 625.891 97.7489C625.098 98.2944 624.702 98.989 624.702 99.8327C624.702 100.583 624.974 101.175 625.52 101.61C626.065 102.044 626.918 102.407 628.077 102.696L630.991 103.412C632.747 103.838 634.055 104.49 634.916 105.368C635.777 106.238 636.207 107.358 636.207 108.73C636.207 109.855 635.884 110.861 635.236 111.747C634.597 112.634 633.702 113.333 632.551 113.844C631.401 114.355 630.062 114.611 628.537 114.611C626.534 114.611 624.876 114.176 623.564 113.307C622.251 112.438 621.42 111.168 621.071 109.497L623.935 108.782C624.207 109.838 624.723 110.631 625.482 111.159C626.249 111.688 627.25 111.952 628.486 111.952C629.892 111.952 631.009 111.654 631.835 111.057C632.67 110.452 633.088 109.728 633.088 108.884C633.088 108.202 632.849 107.631 632.372 107.171C631.895 106.702 631.162 106.353 630.173 106.122L626.901 105.355C625.102 104.929 623.781 104.269 622.937 103.374C622.102 102.47 621.685 101.341 621.685 99.9861C621.685 98.8782 621.996 97.898 622.618 97.0458C623.249 96.1935 624.105 95.5245 625.187 95.0387C626.278 94.5529 627.514 94.31 628.895 94.31C630.838 94.31 632.364 94.7361 633.472 95.5884C634.588 96.4407 635.381 97.5657 635.849 98.9634ZM649.289 94.5657V97.1225H639.113V94.5657H649.289ZM642.078 89.8611H645.096V108.577C645.096 109.429 645.219 110.069 645.466 110.495C645.722 110.912 646.046 111.194 646.438 111.338C646.838 111.475 647.26 111.543 647.703 111.543C648.036 111.543 648.309 111.526 648.522 111.492C648.735 111.449 648.905 111.415 649.033 111.39L649.647 114.1C649.442 114.176 649.157 114.253 648.79 114.33C648.424 114.415 647.959 114.458 647.397 114.458C646.544 114.458 645.709 114.274 644.891 113.908C644.081 113.542 643.408 112.983 642.871 112.233C642.343 111.483 642.078 110.537 642.078 109.395V89.8611ZM653.827 114.202V94.5657H656.742V97.5316H656.946C657.304 96.56 657.952 95.7716 658.89 95.1665C659.827 94.5614 660.884 94.2588 662.06 94.2588C662.282 94.2588 662.559 94.2631 662.891 94.2716C663.223 94.2802 663.475 94.2929 663.645 94.31V97.3782C663.543 97.3526 663.309 97.3142 662.942 97.2631C662.584 97.2034 662.205 97.1736 661.804 97.1736C660.85 97.1736 659.997 97.3739 659.247 97.7745C658.506 98.1665 657.918 98.712 657.483 99.4108C657.057 100.101 656.844 100.89 656.844 101.776V114.202H653.827ZM674.601 114.611C672.828 114.611 671.273 114.189 669.935 113.345C668.605 112.502 667.566 111.321 666.816 109.804C666.074 108.287 665.703 106.515 665.703 104.486C665.703 102.441 666.074 100.655 666.816 99.1296C667.566 97.604 668.605 96.4194 669.935 95.5756C671.273 94.7319 672.828 94.31 674.601 94.31C676.374 94.31 677.925 94.7319 679.255 95.5756C680.593 96.4194 681.632 97.604 682.374 99.1296C683.124 100.655 683.499 102.441 683.499 104.486C683.499 106.515 683.124 108.287 682.374 109.804C681.632 111.321 680.593 112.502 679.255 113.345C677.925 114.189 676.374 114.611 674.601 114.611ZM674.601 111.901C675.948 111.901 677.056 111.556 677.925 110.865C678.794 110.175 679.438 109.267 679.855 108.142C680.273 107.017 680.482 105.799 680.482 104.486C680.482 103.174 680.273 101.951 679.855 100.817C679.438 99.6836 678.794 98.7674 677.925 98.0685C677.056 97.3696 675.948 97.0202 674.601 97.0202C673.255 97.0202 672.147 97.3696 671.277 98.0685C670.408 98.7674 669.765 99.6836 669.347 100.817C668.929 101.951 668.721 103.174 668.721 104.486C668.721 105.799 668.929 107.017 669.347 108.142C669.765 109.267 670.408 110.175 671.277 110.865C672.147 111.556 673.255 111.901 674.601 111.901ZM702.013 98.9634L699.303 99.7304C699.133 99.2787 698.881 98.8398 698.549 98.4137C698.225 97.979 697.782 97.6211 697.219 97.3398C696.657 97.0586 695.937 96.9179 695.059 96.9179C693.857 96.9179 692.856 97.1949 692.055 97.7489C691.262 98.2944 690.866 98.989 690.866 99.8327C690.866 100.583 691.138 101.175 691.684 101.61C692.229 102.044 693.082 102.407 694.241 102.696L697.156 103.412C698.911 103.838 700.219 104.49 701.08 105.368C701.941 106.238 702.371 107.358 702.371 108.73C702.371 109.855 702.048 110.861 701.4 111.747C700.761 112.634 699.866 113.333 698.715 113.844C697.565 114.355 696.227 114.611 694.701 114.611C692.698 114.611 691.04 114.176 689.728 113.307C688.415 112.438 687.584 111.168 687.235 109.497L690.099 108.782C690.371 109.838 690.887 110.631 691.646 111.159C692.413 111.688 693.414 111.952 694.65 111.952C696.056 111.952 697.173 111.654 697.999 111.057C698.834 110.452 699.252 109.728 699.252 108.884C699.252 108.202 699.013 107.631 698.536 107.171C698.059 106.702 697.326 106.353 696.337 106.122L693.065 105.355C691.266 104.929 689.945 104.269 689.102 103.374C688.266 102.47 687.849 101.341 687.849 99.9861C687.849 98.8782 688.16 97.898 688.782 97.0458C689.413 96.1935 690.269 95.5245 691.352 95.0387C692.442 94.5529 693.678 94.31 695.059 94.31C697.002 94.31 698.528 94.7361 699.636 95.5884C700.752 96.4407 701.545 97.5657 702.013 98.9634ZM724.453 114.611C722.816 114.611 721.372 114.198 720.119 113.371C718.866 112.536 717.886 111.36 717.179 109.843C716.471 108.317 716.118 106.515 716.118 104.435C716.118 102.372 716.471 100.583 717.179 99.0657C717.886 97.5486 718.87 96.3767 720.132 95.55C721.393 94.7233 722.85 94.31 724.504 94.31C725.782 94.31 726.792 94.523 727.534 94.9492C728.284 95.3668 728.855 95.8441 729.247 96.381C729.647 96.9094 729.958 97.3441 730.18 97.685H730.436V88.0202H733.453V114.202H730.538V111.185H730.18C729.958 111.543 729.643 111.995 729.234 112.54C728.825 113.077 728.241 113.559 727.483 113.985C726.724 114.402 725.714 114.611 724.453 114.611ZM724.862 111.901C726.072 111.901 727.095 111.586 727.93 110.955C728.765 110.316 729.4 109.434 729.835 108.309C730.27 107.175 730.487 105.867 730.487 104.384C730.487 102.918 730.274 101.635 729.848 100.536C729.421 99.4279 728.791 98.5671 727.956 97.9534C727.12 97.3313 726.089 97.0202 724.862 97.0202C723.583 97.0202 722.518 97.3483 721.666 98.0046C720.822 98.6523 720.187 99.5344 719.761 100.651C719.343 101.759 719.135 103.003 719.135 104.384C719.135 105.782 719.348 107.051 719.774 108.194C720.208 109.327 720.848 110.23 721.691 110.904C722.544 111.569 723.6 111.901 724.862 111.901ZM745.176 114.662C743.931 114.662 742.802 114.428 741.788 113.959C740.774 113.482 739.968 112.796 739.372 111.901C738.775 110.997 738.477 109.907 738.477 108.628C738.477 107.503 738.698 106.591 739.142 105.892C739.585 105.185 740.177 104.631 740.919 104.23C741.66 103.83 742.478 103.532 743.373 103.336C744.277 103.131 745.184 102.969 746.096 102.85C747.289 102.696 748.257 102.581 748.998 102.505C749.748 102.419 750.294 102.279 750.635 102.083C750.984 101.887 751.159 101.546 751.159 101.06V100.958C751.159 99.6963 750.814 98.7162 750.123 98.0174C749.441 97.3185 748.406 96.9691 747.017 96.9691C745.576 96.9691 744.447 97.2844 743.629 97.9151C742.811 98.5458 742.235 99.2191 741.903 99.935L739.039 98.9123C739.551 97.7191 740.233 96.7901 741.085 96.1253C741.946 95.452 742.883 94.9833 743.897 94.7191C744.92 94.4463 745.926 94.31 746.914 94.31C747.545 94.31 748.27 94.3867 749.088 94.5401C749.914 94.685 750.711 94.9875 751.478 95.4478C752.254 95.908 752.897 96.6026 753.409 97.5316C753.92 98.4605 754.176 99.7049 754.176 101.265V114.202H751.159V111.543H751.005C750.801 111.969 750.46 112.425 749.983 112.911C749.505 113.397 748.87 113.81 748.078 114.151C747.285 114.492 746.318 114.662 745.176 114.662ZM745.636 111.952C746.829 111.952 747.835 111.718 748.653 111.249C749.48 110.78 750.102 110.175 750.52 109.434C750.946 108.692 751.159 107.912 751.159 107.094V104.333C751.031 104.486 750.75 104.627 750.315 104.755C749.889 104.874 749.395 104.98 748.832 105.074C748.278 105.159 747.737 105.236 747.208 105.304C746.689 105.364 746.267 105.415 745.943 105.458C745.159 105.56 744.426 105.726 743.744 105.956C743.071 106.178 742.525 106.515 742.108 106.966C741.698 107.409 741.494 108.015 741.494 108.782C741.494 109.83 741.882 110.622 742.657 111.159C743.441 111.688 744.434 111.952 745.636 111.952ZM773.08 121.566V111.185H772.825C772.603 111.543 772.288 111.995 771.879 112.54C771.469 113.077 770.886 113.559 770.127 113.985C769.369 114.402 768.359 114.611 767.097 114.611C765.461 114.611 764.016 114.198 762.763 113.371C761.511 112.536 760.531 111.36 759.823 109.843C759.116 108.317 758.762 106.515 758.762 104.435C758.762 102.372 759.116 100.583 759.823 99.0657C760.531 97.5486 761.515 96.3767 762.776 95.55C764.038 94.7233 765.495 94.31 767.148 94.31C768.427 94.31 769.437 94.523 770.178 94.9492C770.928 95.3668 771.499 95.8441 771.891 96.381C772.292 96.9094 772.603 97.3441 772.825 97.685H773.183V94.5657H776.097V121.566H773.08ZM767.506 111.901C768.717 111.901 769.739 111.586 770.575 110.955C771.41 110.316 772.045 109.434 772.479 108.309C772.914 107.175 773.131 105.867 773.131 104.384C773.131 102.918 772.918 101.635 772.492 100.536C772.066 99.4279 771.435 98.5671 770.6 97.9534C769.765 97.3313 768.734 97.0202 767.506 97.0202C766.228 97.0202 765.163 97.3483 764.31 98.0046C763.467 98.6523 762.832 99.5344 762.406 100.651C761.988 101.759 761.779 103.003 761.779 104.384C761.779 105.782 761.992 107.051 762.418 108.194C762.853 109.327 763.492 110.23 764.336 110.904C765.188 111.569 766.245 111.901 767.506 111.901ZM793.995 106.174V94.5657H797.012V114.202H793.995V110.878H793.79C793.33 111.875 792.614 112.723 791.643 113.422C790.671 114.113 789.444 114.458 787.961 114.458C786.734 114.458 785.643 114.189 784.688 113.652C783.734 113.107 782.984 112.289 782.438 111.198C781.893 110.098 781.62 108.713 781.62 107.043V94.5657H784.637V106.838C784.637 108.27 785.038 109.412 785.839 110.265C786.648 111.117 787.68 111.543 788.933 111.543C789.683 111.543 790.445 111.351 791.221 110.968C792.005 110.584 792.661 109.996 793.19 109.203C793.727 108.411 793.995 107.401 793.995 106.174ZM802.538 114.202V94.5657H805.555V114.202H802.538ZM804.072 91.2929C803.484 91.2929 802.977 91.0927 802.551 90.6921C802.133 90.2915 801.924 89.81 801.924 89.2475C801.924 88.685 802.133 88.2034 802.551 87.8029C802.977 87.4023 803.484 87.202 804.072 87.202C804.66 87.202 805.163 87.4023 805.581 87.8029C806.007 88.2034 806.22 88.685 806.22 89.2475C806.22 89.81 806.007 90.2915 805.581 90.6921C805.163 91.0927 804.66 91.2929 804.072 91.2929ZM815.018 106.838V106.685C815.035 105.057 815.206 103.762 815.53 102.799C815.854 101.836 816.314 101.056 816.91 100.459C817.507 99.8625 818.223 99.3128 819.058 98.81C819.561 98.5032 820.013 98.1409 820.413 97.7233C820.814 97.2972 821.129 96.8071 821.359 96.2532C821.598 95.6992 821.717 95.0855 821.717 94.4123C821.717 93.577 821.521 92.8526 821.129 92.239C820.737 91.6253 820.213 91.1523 819.557 90.8199C818.901 90.4875 818.172 90.3213 817.371 90.3213C816.672 90.3213 815.999 90.4662 815.351 90.756C814.703 91.0458 814.162 91.5017 813.727 92.1239C813.293 92.7461 813.041 93.56 812.973 94.5657H809.751C809.82 93.1168 810.195 91.8767 810.876 90.8455C811.567 89.8142 812.474 89.0259 813.599 88.4804C814.733 87.935 815.99 87.6623 817.371 87.6623C818.871 87.6623 820.175 87.9605 821.283 88.5571C822.399 89.1537 823.26 89.9719 823.865 91.0117C824.479 92.0515 824.785 93.2361 824.785 94.5657C824.785 95.5032 824.641 96.3512 824.351 97.1097C824.07 97.8682 823.66 98.5458 823.124 99.1424C822.595 99.739 821.956 100.267 821.206 100.728C820.456 101.196 819.855 101.691 819.403 102.211C818.952 102.722 818.624 103.331 818.419 104.039C818.214 104.746 818.104 105.628 818.087 106.685V106.838H815.018ZM816.655 114.407C816.024 114.407 815.483 114.181 815.031 113.729C814.58 113.277 814.354 112.736 814.354 112.105C814.354 111.475 814.58 110.934 815.031 110.482C815.483 110.03 816.024 109.804 816.655 109.804C817.285 109.804 817.827 110.03 818.278 110.482C818.73 110.934 818.956 111.475 818.956 112.105C818.956 112.523 818.849 112.907 818.636 113.256C818.432 113.605 818.155 113.887 817.805 114.1C817.464 114.304 817.081 114.407 816.655 114.407Z" fill="black"/>
<path d="M784.722 186L743 157.875L818 156L784.722 186Z" fill="#D9D9D9"/>
</svg>
