<svg width="1194" height="834" viewBox="0 0 1194 834" fill="none" xmlns="http://www.w3.org/2000/svg">
<g clip-path="url(#clip0_10_4)">
<rect width="1194" height="834" fill="white"/>
<rect x="45" y="154" width="900" height="638" stroke="#D9D9D9" stroke-width="6"/>
<path d="M978 662C978 652.611 985.611 645 995 645V645C1004.39 645 1012 652.611 1012 662V795H978V662Z" fill="#D9D9D9"/>
<path d="M1042 662C1042 652.611 1049.61 645 1059 645V645C1068.39 645 1076 652.611 1076 662V795H1042V662Z" fill="#D9D9D9"/>
<path d="M1106 662C1106 652.611 1113.61 645 1123 645V645C1132.39 645 1140 652.611 1140 662V795H1106V662Z" fill="#D9D9D9"/>
<path d="M1170 662C1170 652.611 1177.61 645 1187 645V645C1196.39 645 1204 652.611 1204 662V795H1170V662Z" fill="#D9D9D9"/>
<rect x="948" y="672" width="246" height="14" fill="#D9D9D9"/>
<rect x="948" y="755" width="246" height="14" fill="#D9D9D9"/>
<path d="M45 154L486.5 0L943 154" stroke="#D9D9D9" stroke-width="6"/>
<rect x="46" y="154" width="356" height="319" stroke="#D9D9D9" stroke-width="6"/>
<rect x="46" y="473" width="450" height="319" stroke="#D9D9D9" stroke-width="6"/>
<rect x="495" y="473" width="450" height="319" stroke="#D9D9D9" stroke-width="6"/>
<rect x="591" y="154" width="354" height="319" stroke="#D9D9D9" stroke-width="6"/>
<rect x="402" y="154" width="190" height="319" stroke="#D9D9D9" stroke-width="6"/>
<circle cx="53" cy="784" r="29" fill="#D9D9D9"/>
</g>
<defs>
<clipPath id="clip0_10_4">
<rect width="1194" height="834" fill="white"/>
</clipPath>
</defs>
</svg>
