<svg width="360" height="325" viewBox="0 0 360 325" fill="none" xmlns="http://www.w3.org/2000/svg">
<rect width="360" height="325" fill="#D9D9D9"/>
<path d="M118.909 169.091H123.545L127.432 174.205L128.455 175.568L134.25 183.273H129.614L125.795 178.159L124.841 176.864L118.909 169.091ZM135.682 162.545C135.682 166.227 135.017 169.409 133.688 172.091C132.358 174.773 130.534 176.841 128.216 178.295C125.898 179.75 123.25 180.477 120.273 180.477C117.295 180.477 114.648 179.75 112.33 178.295C110.011 176.841 108.188 174.773 106.858 172.091C105.528 169.409 104.864 166.227 104.864 162.545C104.864 158.864 105.528 155.682 106.858 153C108.188 150.318 110.011 148.25 112.33 146.795C114.648 145.341 117.295 144.614 120.273 144.614C123.25 144.614 125.898 145.341 128.216 146.795C130.534 148.25 132.358 150.318 133.688 153C135.017 155.682 135.682 158.864 135.682 162.545ZM131.591 162.545C131.591 159.523 131.085 156.972 130.074 154.892C129.074 152.812 127.716 151.239 126 150.17C124.295 149.102 122.386 148.568 120.273 148.568C118.159 148.568 116.244 149.102 114.528 150.17C112.824 151.239 111.466 152.812 110.455 154.892C109.455 156.972 108.955 159.523 108.955 162.545C108.955 165.568 109.455 168.119 110.455 170.199C111.466 172.278 112.824 173.852 114.528 174.92C116.244 175.989 118.159 176.523 120.273 176.523C122.386 176.523 124.295 175.989 126 174.92C127.716 173.852 129.074 172.278 130.074 170.199C131.085 168.119 131.591 165.568 131.591 162.545ZM158.744 169.295V153.818H162.767V180H158.744V175.568H158.472C157.858 176.898 156.903 178.028 155.608 178.96C154.313 179.881 152.676 180.341 150.699 180.341C149.062 180.341 147.608 179.983 146.335 179.267C145.063 178.54 144.063 177.449 143.335 175.994C142.608 174.528 142.244 172.682 142.244 170.455V153.818H146.267V170.182C146.267 172.091 146.801 173.614 147.869 174.75C148.949 175.886 150.324 176.455 151.994 176.455C152.994 176.455 154.011 176.199 155.045 175.688C156.091 175.176 156.966 174.392 157.67 173.335C158.386 172.278 158.744 170.932 158.744 169.295ZM177.839 180.614C176.18 180.614 174.675 180.301 173.322 179.676C171.97 179.04 170.896 178.125 170.101 176.932C169.305 175.727 168.908 174.273 168.908 172.568C168.908 171.068 169.203 169.852 169.794 168.92C170.385 167.977 171.175 167.239 172.163 166.705C173.152 166.17 174.243 165.773 175.436 165.511C176.641 165.239 177.851 165.023 179.067 164.864C180.658 164.659 181.947 164.506 182.936 164.403C183.936 164.29 184.663 164.102 185.118 163.841C185.584 163.58 185.817 163.125 185.817 162.477V162.341C185.817 160.659 185.357 159.352 184.436 158.42C183.527 157.489 182.146 157.023 180.294 157.023C178.374 157.023 176.868 157.443 175.777 158.284C174.686 159.125 173.919 160.023 173.476 160.977L169.658 159.614C170.339 158.023 171.249 156.784 172.385 155.898C173.533 155 174.783 154.375 176.135 154.023C177.499 153.659 178.839 153.477 180.158 153.477C180.999 153.477 181.964 153.58 183.055 153.784C184.158 153.977 185.22 154.381 186.243 154.994C187.277 155.608 188.135 156.534 188.817 157.773C189.499 159.011 189.839 160.67 189.839 162.75V180H185.817V176.455H185.612C185.339 177.023 184.885 177.631 184.249 178.278C183.612 178.926 182.766 179.477 181.709 179.932C180.652 180.386 179.362 180.614 177.839 180.614ZM178.453 177C180.044 177 181.385 176.688 182.476 176.062C183.578 175.438 184.408 174.631 184.964 173.642C185.533 172.653 185.817 171.614 185.817 170.523V166.841C185.646 167.045 185.271 167.233 184.692 167.403C184.124 167.562 183.464 167.705 182.714 167.83C181.976 167.943 181.254 168.045 180.55 168.136C179.857 168.216 179.294 168.284 178.862 168.341C177.817 168.477 176.839 168.699 175.93 169.006C175.033 169.301 174.305 169.75 173.749 170.352C173.203 170.943 172.93 171.75 172.93 172.773C172.93 174.17 173.447 175.227 174.482 175.943C175.527 176.648 176.851 177 178.453 177ZM197.182 180V153.818H201.068V157.773H201.341C201.818 156.477 202.682 155.426 203.932 154.619C205.182 153.812 206.591 153.409 208.159 153.409C208.455 153.409 208.824 153.415 209.267 153.426C209.71 153.437 210.045 153.455 210.273 153.477V157.568C210.136 157.534 209.824 157.483 209.335 157.415C208.858 157.335 208.352 157.295 207.818 157.295C206.545 157.295 205.409 157.562 204.409 158.097C203.42 158.619 202.636 159.347 202.057 160.278C201.489 161.199 201.205 162.25 201.205 163.432V180H197.182ZM228.068 153.818V157.227H214.5V153.818H228.068ZM218.455 147.545H222.477V172.5C222.477 173.636 222.642 174.489 222.972 175.057C223.313 175.614 223.744 175.989 224.267 176.182C224.801 176.364 225.364 176.455 225.955 176.455C226.398 176.455 226.761 176.432 227.045 176.386C227.33 176.33 227.557 176.284 227.727 176.25L228.545 179.864C228.273 179.966 227.892 180.068 227.403 180.17C226.915 180.284 226.295 180.341 225.545 180.341C224.409 180.341 223.295 180.097 222.205 179.608C221.125 179.119 220.227 178.375 219.511 177.375C218.807 176.375 218.455 175.114 218.455 173.591V147.545ZM244.474 180.545C242.111 180.545 240.037 179.983 238.253 178.858C236.48 177.733 235.094 176.159 234.094 174.136C233.105 172.114 232.611 169.75 232.611 167.045C232.611 164.318 233.105 161.937 234.094 159.903C235.094 157.869 236.48 156.29 238.253 155.165C240.037 154.04 242.111 153.477 244.474 153.477C246.838 153.477 248.906 154.04 250.679 155.165C252.463 156.29 253.849 157.869 254.838 159.903C255.838 161.937 256.338 164.318 256.338 167.045C256.338 169.75 255.838 172.114 254.838 174.136C253.849 176.159 252.463 177.733 250.679 178.858C248.906 179.983 246.838 180.545 244.474 180.545ZM244.474 176.932C246.27 176.932 247.747 176.472 248.906 175.551C250.065 174.631 250.923 173.42 251.48 171.92C252.037 170.42 252.315 168.795 252.315 167.045C252.315 165.295 252.037 163.665 251.48 162.153C250.923 160.642 250.065 159.42 248.906 158.489C247.747 157.557 246.27 157.091 244.474 157.091C242.679 157.091 241.202 157.557 240.043 158.489C238.884 159.42 238.026 160.642 237.469 162.153C236.912 163.665 236.634 165.295 236.634 167.045C236.634 168.795 236.912 170.42 237.469 171.92C238.026 173.42 238.884 174.631 240.043 175.551C241.202 176.472 242.679 176.932 244.474 176.932Z" fill="black"/>
</svg>
